<svg width="96" height="96" viewBox="0 0 96 96" fill="none" xmlns="http://www.w3.org/2000/svg">
<circle cx="48" cy="48" r="48" fill="url(#paint0_linear_30_169)"/>
<path d="M51.6089 27.5015L55.2585 30.1896C58.3713 32.4824 58.7168 36.5946 56.0303 39.3746L53.0605 42.4478L49.4108 39.7596C46.2981 37.4669 45.9525 33.3546 48.6391 30.5746L51.6089 27.5015Z" stroke="#FFCA20" stroke-width="4" stroke-linejoin="round"/>
<path d="M41.4246 38.0403L45.0742 40.7284C48.187 43.0212 48.5325 47.1334 45.8459 49.9134L42.8761 52.9866L39.2265 50.2984C36.1137 48.0057 35.7682 43.8934 38.4547 41.1134L41.4246 38.0403Z" stroke="#FFCA20" stroke-width="4" stroke-linejoin="round"/>
<path d="M31.2395 48.5791L34.8891 51.2673C38.0019 53.56 38.3474 57.6723 35.6609 60.4523L32.6911 63.5254L29.0414 60.8372C25.9287 58.5445 25.5832 54.4322 28.2697 51.6522L31.2395 48.5791Z" stroke="#FFCA20" stroke-width="4" stroke-linejoin="round"/>
<path d="M53.0605 42.4478L56.7102 45.1359C59.8229 47.4286 64.5242 47.0336 67.2107 44.2536L70.1806 41.1805L66.5309 38.4923C63.4182 36.1996 58.7169 36.5946 56.0304 39.3746L53.0605 42.4478Z" stroke="#FFCA20" stroke-width="4" stroke-linejoin="round"/>
<path d="M42.8762 52.9866L46.5259 55.6747C49.6386 57.9675 54.3399 57.5724 57.0264 54.7924L59.9962 51.7193L56.3466 49.0311C53.2338 46.7384 48.5326 47.1334 45.846 49.9134L42.8762 52.9866Z" stroke="#FFCA20" stroke-width="4" stroke-linejoin="round"/>
<path d="M32.6912 63.5254L36.3408 66.2136C39.4536 68.5063 44.1548 68.1113 46.8414 65.3313L49.8112 62.2581L46.1615 59.57C43.0488 57.2772 38.3475 57.6722 35.661 60.4523L32.6912 63.5254Z" stroke="#FFCA20" stroke-width="4" stroke-linejoin="round"/>
<path d="M60.9036 34.5439L66.0234 34.1279C69.8767 33.8148 72.6681 30.4446 72.2583 26.6004L71.8744 23L66.7546 23.4161C62.9013 23.7292 60.1098 27.0994 60.5197 30.9436L60.9036 34.5439Z" stroke="#FFCA20" stroke-width="4" stroke-linejoin="round"/>
<path d="M30.8345 62.1575L34.5488 64.8933L28.3174 71.3414C27.4322 72.2575 25.8831 72.3876 24.8574 71.6322C23.8317 70.8767 23.7179 69.5217 24.6031 68.6056L30.8345 62.1575Z" fill="#FFCA20"/>
<defs>
<linearGradient id="paint0_linear_30_169" x1="17.5" y1="82.5" x2="82.5" y2="-7" gradientUnits="userSpaceOnUse">
<stop stop-color="#FFCA20" stop-opacity="0.1"/>
<stop offset="1" stop-color="#FFCA20" stop-opacity="0.25"/>
</linearGradient>
</defs>
</svg>
