<svg width="96" height="96" viewBox="0 0 96 96" fill="none" xmlns="http://www.w3.org/2000/svg">
<circle cx="48" cy="48" r="48" fill="url(#paint0_linear_30_205)"/>
<path d="M27.6663 28.8304L26.3207 27.3508L26.3207 27.3508L27.6663 28.8304ZM48.3635 29.5795L49.8135 28.202L49.8125 28.2009L48.3635 29.5795ZM48.3821 29.599L46.9321 30.9765L48.2704 32.3852L49.7172 31.0881L48.3821 29.599ZM48.4387 29.5482L49.7738 31.0374L49.7817 31.0303L48.4387 29.5482ZM69.0999 30.3324L70.5513 28.9564L70.5513 28.9564L69.0999 30.3324ZM68.3333 50.5336L69.6762 52.0157L69.6763 52.0156L68.3333 50.5336ZM47.1213 69.7533L45.7784 68.2712L45.7725 68.2766L47.1213 69.7533ZM46.8508 70.0004L45.4018 71.3789L46.7526 72.7987L48.1996 71.4771L46.8508 70.0004ZM26.9348 49.0668L25.4858 50.4453L25.4858 50.4453L26.9348 49.0668ZM27.6663 28.8304L29.0119 30.3101C34.125 25.6602 42.1507 25.9507 46.9145 30.958L48.3635 29.5795L49.8125 28.2009C43.5502 21.6186 33.0423 21.2381 26.3207 27.3508L27.6663 28.8304ZM48.3635 29.5795L46.9135 30.957L46.9321 30.9765L48.3821 29.599L49.8321 28.2215L49.8135 28.202L48.3635 29.5795ZM48.3821 29.599L49.7172 31.0881L49.7738 31.0374L48.4387 29.5482L47.1036 28.0591L47.047 28.1099L48.3821 29.599ZM48.4387 29.5482L49.7817 31.0303C54.8932 26.3985 62.9028 26.7025 67.6484 31.7084L69.0999 30.3324L70.5513 28.9564C64.3099 22.3727 53.8183 21.9746 47.0958 28.0662L48.4387 29.5482ZM69.0999 30.3324L67.6484 31.7084C72.3698 36.6887 72.0754 44.4432 66.9902 49.0516L68.3333 50.5336L69.6763 52.0156C76.4244 45.9002 76.8168 35.5656 70.5513 28.9564L69.0999 30.3324ZM68.3333 50.5336L66.9903 49.0515L45.7784 68.2712L47.1213 69.7533L48.4642 71.2354L69.6762 52.0157L68.3333 50.5336ZM47.1213 69.7533L45.7725 68.2766L45.502 68.5236L46.8508 70.0004L48.1996 71.4771L48.4701 71.23L47.1213 69.7533ZM46.8508 70.0004L48.2998 68.6218L28.3838 47.6882L26.9348 49.0668L25.4858 50.4453L45.4018 71.3789L46.8508 70.0004ZM26.9348 49.0668L28.3838 47.6882C23.6441 42.7063 23.9248 34.9363 29.0119 30.3101L27.6663 28.8304L26.3207 27.3508C19.5729 33.4872 19.1994 43.8376 25.4858 50.4453L26.9348 49.0668Z" fill="#DF1515"/>
<defs>
<linearGradient id="paint0_linear_30_205" x1="17.5" y1="82.5" x2="82.5" y2="-7" gradientUnits="userSpaceOnUse">
<stop stop-color="#DF1515" stop-opacity="0.25"/>
<stop offset="1" stop-color="#DF1515" stop-opacity="0.1"/>
</linearGradient>
</defs>
</svg>
