<svg width="64" height="64" viewBox="0 0 64 64" fill="none" xmlns="http://www.w3.org/2000/svg">
<g clip-path="url(#clip0_119_77)">
<mask id="mask0_119_77" style="mask-type:luminance" maskUnits="userSpaceOnUse" x="0" y="0" width="64" height="64">
<path d="M64 0H0V64H64V0Z" fill="white"/>
</mask>
<g mask="url(#mask0_119_77)">
<path d="M0 21.3317V37.3317H21.0933C20.4606 41.0557 18.5319 44.4365 15.6481 46.8763C12.7642 49.316 9.1108 50.6581 5.33333 50.6651V55.9984C10.9893 55.992 16.4119 53.7424 20.4113 49.7429C24.4107 45.7435 26.6603 40.3211 26.6667 34.6651V10.665H10.6667C7.83768 10.665 5.12459 11.7889 3.12419 13.7892C1.12381 15.7896 0 18.5027 0 21.3317Z" fill="#4B1C13"/>
<path d="M48.0007 10.665C45.1716 10.665 42.4585 11.7889 40.458 13.7892C38.4577 15.7896 37.334 18.5027 37.334 21.3317V37.3317H58.4273C57.7945 41.0557 55.8657 44.4365 52.982 46.8763C50.098 49.316 46.4447 50.6581 42.6673 50.6651V55.9984C48.3233 55.992 53.7457 53.7424 57.7452 49.7429C61.7446 45.7435 63.9942 40.3211 64.0006 34.6651V10.665H48.0007Z" fill="#4B1C13"/>
</g>
</g>
<defs>
<clipPath id="clip0_119_77">
<rect width="64" height="64" fill="white"/>
</clipPath>
</defs>
</svg>
