<svg width="136" height="136" viewBox="0 0 136 136" fill="none" xmlns="http://www.w3.org/2000/svg">
<g filter="url(#filter0_d_33_344)">
<circle cx="68" cy="48" r="48" fill="white"/>
</g>
<path d="M66.1692 62.56C64.2226 62.56 62.2759 62.32 60.3292 61.84C58.4092 61.36 56.7292 60.68 55.2892 59.8L58.1692 53.84C59.2892 54.5867 60.5292 55.16 61.8892 55.56C63.2759 55.96 64.6226 56.16 65.9292 56.16C67.2892 56.16 68.3692 55.9067 69.1692 55.4C69.9692 54.8933 70.3692 54.1733 70.3692 53.24C70.3692 52.4133 70.0359 51.76 69.3692 51.28C68.7026 50.7733 67.6092 50.52 66.0892 50.52H62.7692V45.52L70.2892 37.4L71.0492 40.12H56.7292V34H76.9692V38.96L69.4492 47.08L65.5692 44.88H67.7292C71.2226 44.88 73.8626 45.6667 75.6492 47.24C77.4626 48.7867 78.3692 50.7867 78.3692 53.24C78.3692 54.84 77.9292 56.3467 77.0492 57.76C76.1959 59.1733 74.8759 60.3333 73.0892 61.24C71.3026 62.12 68.9959 62.56 66.1692 62.56Z" fill="#1F14BA"/>
<defs>
<filter id="filter0_d_33_344" x="0" y="0" width="136" height="136" filterUnits="userSpaceOnUse" color-interpolation-filters="sRGB">
<feFlood flood-opacity="0" result="BackgroundImageFix"/>
<feColorMatrix in="SourceAlpha" type="matrix" values="0 0 0 0 0 0 0 0 0 0 0 0 0 0 0 0 0 0 127 0" result="hardAlpha"/>
<feOffset dy="20"/>
<feGaussianBlur stdDeviation="10"/>
<feComposite in2="hardAlpha" operator="out"/>
<feColorMatrix type="matrix" values="0 0 0 0 0.294118 0 0 0 0 0.109804 0 0 0 0 0.0745098 0 0 0 0.15 0"/>
<feBlend mode="normal" in2="BackgroundImageFix" result="effect1_dropShadow_33_344"/>
<feBlend mode="normal" in="SourceGraphic" in2="effect1_dropShadow_33_344" result="shape"/>
</filter>
</defs>
</svg>
