<svg width="49" height="47" viewBox="0 0 49 47" fill="none" xmlns="http://www.w3.org/2000/svg">
<path d="M22.5397 1.01791C23.3047 -0.339383 25.2592 -0.339382 26.0243 1.01791L32.5611 12.6154C32.8465 13.1218 33.3381 13.4789 33.9078 13.5939L46.9577 16.227C48.485 16.5351 49.089 18.394 48.0345 19.541L39.0246 29.3418C38.6313 29.7697 38.4435 30.3476 38.5102 30.925L40.0387 44.1498C40.2175 45.6976 38.6363 46.8464 37.2196 46.198L25.1143 40.6577C24.5858 40.4158 23.9781 40.4158 23.4496 40.6577L11.3443 46.198C9.92763 46.8464 8.34636 45.6976 8.52524 44.1498L10.0537 30.925C10.1204 30.3476 9.93264 29.7697 9.53927 29.3418L0.529356 19.541C-0.525098 18.394 0.0788909 16.5351 1.60616 16.227L14.6561 13.5939C15.2258 13.4789 15.7174 13.1218 16.0028 12.6154L22.5397 1.01791Z" fill="#FFCA20"/>
</svg>
